<svg width="100" height="100" viewBox="0 0 100 100" fill="none" xmlns="http://www.w3.org/2000/svg">
<path fill-rule="evenodd" clip-rule="evenodd" d="M50 100C77.6142 100 100 77.6142 100 50C100 22.3858 77.6142 0 50 0C22.3858 0 0 22.3858 0 50C0 77.6142 22.3858 100 50 100ZM15.8289 42.16C14.9855 44.47 14.5639 46.8167 14.5639 49.2C14.5639 51.6567 15.0222 54.095 15.9389 56.515C16.8922 58.8983 18.2122 61.0617 19.8989 63.005C21.5856 64.9117 23.5656 66.4517 25.8389 67.625C28.1489 68.7617 30.6972 69.33 33.4839 69.33C35.6106 69.33 37.7556 68.9817 39.9189 68.285C42.0822 67.5517 44.0255 66.525 45.7489 65.205C47.4722 63.8483 48.7372 62.1983 49.5439 60.255L43.3289 56.68C42.7422 58.0733 41.9172 59.21 40.8539 60.09C39.7906 60.97 38.6172 61.6117 37.3339 62.015C36.0872 62.4183 34.8772 62.62 33.7039 62.62C31.4306 62.62 29.4322 61.9967 27.7089 60.75C25.9855 59.5033 24.6472 57.89 23.6939 55.91C22.7406 53.8933 22.2639 51.73 22.2639 49.42C22.2639 47.88 22.4839 46.34 22.9239 44.8C23.4006 43.26 24.1156 41.8667 25.0689 40.62C26.0222 39.3733 27.1956 38.365 28.5889 37.595C30.0189 36.825 31.6872 36.44 33.5939 36.44C34.7306 36.44 35.9039 36.6233 37.1139 36.99C38.3606 37.3567 39.5156 37.9617 40.5789 38.805C41.6422 39.6483 42.5039 40.8033 43.1639 42.27L48.9939 38.255C47.7105 35.725 45.7489 33.6717 43.1089 32.095C40.4689 30.5183 37.3705 29.73 33.8139 29.73C30.7706 29.73 28.0572 30.2983 25.6739 31.435C23.2906 32.535 21.2739 34.02 19.6239 35.89C17.9739 37.76 16.7089 39.85 15.8289 42.16ZM68.6181 59.98L58.0581 29.95H50.0831L64.9331 69H72.2481L87.0432 29.95H79.0681L68.6181 59.98Z" fill="white"/>
</svg>
