<svg width="60" height="60" viewBox="0 0 60 60" fill="none" xmlns="http://www.w3.org/2000/svg">
<path fill-rule="evenodd" clip-rule="evenodd" d="M60 30C60 46.5685 46.5685 60 30 60C13.4315 60 0 46.5685 0 30C0 13.4315 13.4315 0 30 0C46.5685 0 60 13.4315 60 30ZM15 38.7897V21.8019C15 20.8071 15.5671 20 16.6084 20H43.1206C44.1232 20 44.729 20.7877 44.729 21.8019V38.7897C44.729 39.7052 44.0516 40.4629 43.1206 40.4629H16.6084C15.6765 40.4629 15 39.7139 15 38.7897ZM18.0881 22.6381C17.6923 22.6381 17.4445 22.8723 17.4445 23.2816C17.4445 23.6277 17.7111 23.7794 17.9594 23.9207C17.9882 23.9371 18.0167 23.9533 18.0445 23.9697C18.786 24.4058 20.9134 25.749 23.1693 27.1734C26.3398 29.1752 29.7641 31.3373 29.9506 31.3661C30.2124 31.4059 30.554 31.1711 30.7617 31.0283C30.7813 31.0149 30.7997 31.0022 30.8168 30.9906C31.9027 30.2974 32.992 29.5927 34.0836 28.8865C36.393 27.3926 38.7129 25.8919 41.0332 24.4777C41.1036 24.4348 41.1787 24.3903 41.2564 24.3442C41.7791 24.0344 42.4123 23.6591 42.4123 23.2816C42.4123 22.8723 42.1655 22.6381 41.7687 22.6381C41.5591 22.6381 35.0826 26.8118 32.4834 28.4868C32.0113 28.7911 31.6671 29.0129 31.5116 29.1123C31.2618 29.2796 31.0159 29.4322 30.7723 29.5834C30.5326 29.7322 30.2951 29.8796 30.0581 30.0384L28.5503 29.1006C28.4348 29.0298 27.9645 28.7336 27.2825 28.3042C24.5201 26.5646 18.2844 22.6381 18.0881 22.6381Z" fill="white"/>
</svg>
