<svg width="60" height="60" viewBox="0 0 60 60" fill="none" xmlns="http://www.w3.org/2000/svg">
<path fill-rule="evenodd" clip-rule="evenodd" d="M60 30C60 46.5685 46.5685 60 30 60C13.4315 60 0 46.5685 0 30C0 13.4315 13.4315 0 30 0C46.5685 0 60 13.4315 60 30ZM25.4173 46.4495C25.4219 46.941 25.4253 47.3085 25.4253 47.5169C25.4253 48.0177 25.0875 48.6022 24.165 48.4291C16.8289 45.926 11.5396 38.8305 11.5385 30.4684C11.5385 20.0133 19.805 11.5385 29.9994 11.5385C40.195 11.5385 48.4615 20.0133 48.4615 30.4684C48.4615 38.8282 43.1768 45.9191 35.8475 48.4268C34.9102 48.6115 34.577 48.0235 34.577 47.5169C34.577 47.3114 34.5796 46.95 34.5831 46.4666C34.5901 45.4904 34.6008 44.0164 34.6008 42.3237C34.6008 40.5573 34.0115 39.4022 33.3473 38.8177C37.4602 38.3494 41.7771 36.7493 41.7771 29.4771C41.7771 27.411 41.0631 25.7214 39.8799 24.3978C40.0703 23.9178 40.7038 21.9935 39.6963 19.3882C39.6963 19.3882 38.1481 18.8792 34.6246 21.3288C33.149 20.9093 31.5702 20.6978 30.0028 20.6908C28.432 20.6978 26.8521 20.9093 25.3799 21.3288C21.8541 18.8792 20.3037 19.3882 20.3037 19.3882C19.2984 21.9946 19.9331 23.919 20.1224 24.3978C18.9414 25.7214 18.2218 27.411 18.2218 29.4771C18.2218 36.7307 22.5319 38.3552 26.6311 38.8328C26.1041 39.3058 25.627 40.1402 25.4593 41.3638C24.4064 41.8484 21.7329 42.6827 20.0861 39.7904C20.0861 39.7904 19.1114 37.9729 17.2584 37.8393C17.2584 37.8393 15.4553 37.8149 17.1315 38.9897C17.1315 38.9897 18.3419 39.5719 19.1817 41.7589C19.1817 41.7589 20.2652 45.4403 25.4003 44.2968C25.4052 45.1448 25.412 45.8803 25.4173 46.4495Z" fill="white"/>
</svg>
